HIERARCHY
ROOT Hips
{
	OFFSET 0.000000 0.000000 0.000000
	CHANNELS 6 Xposition Yposition Zposition Zrotation Yrotation Xrotation
	JOINT LHipJoint
	{
		OFFSET 0.000000 0.000000 0.000000
		CHANNELS 3 Zrotation Yrotation Xrotation
		JOINT LeftUpLeg
		{
			OFFSET 1.363060 -1.794630 0.839290
			CHANNELS 3 Zrotation Yrotation Xrotation
			JOINT LeftLeg
			{
				OFFSET 2.448110 -6.726130 0.000000
				CHANNELS 3 Zrotation Yrotation Xrotation
				JOINT LeftFoot
				{
					OFFSET 2.562200 -7.039590 0.000000
					CHANNELS 3 Zrotation Yrotation Xrotation
					JOINT LeftToeBase
					{
						OFFSET 0.157640 -0.433110 2.322550
						CHANNELS 3 Zrotation Yrotation Xrotation
						End Site
						{
							OFFSET 0.000000 0.000000 0.000000
						}
					}
				}
			}
		}
	}
	JOINT RHipJoint
	{
		OFFSET 0.000000 0.000000 0.000000
		CHANNELS 3 Zrotation Yrotation Xrotation
		JOINT RightUpLeg
		{
			OFFSET -1.305520 -1.794630 0.839290
			CHANNELS 3 Zrotation Yrotation Xrotation
			JOINT RightLeg
			{
				OFFSET -2.542530 -6.985550 0.000000
				CHANNELS 3 Zrotation Yrotation Xrotation
				JOINT RightFoot
				{
					OFFSET -2.568260 -7.056230 0.000000
					CHANNELS 3 Zrotation Yrotation Xrotation
					JOINT RightToeBase
					{
						OFFSET -0.164730 -0.452590 2.363150
						CHANNELS 3 Zrotation Yrotation Xrotation
						End Site
						{
							OFFSET 0.000000 0.000000 0.000000
						}
					}
				}
			}
		}
	}
	JOINT LowerBack
	{
		OFFSET 0.000000 0.000000 0.000000
		CHANNELS 3 Zrotation Yrotation Xrotation
		JOINT Spine
		{
			OFFSET 0.028270 2.035590 -0.193380
			CHANNELS 3 Zrotation Yrotation Xrotation
			JOINT Spine1
			{
				OFFSET 0.056720 2.048850 -0.042750
				CHANNELS 3 Zrotation Yrotation Xrotation
				JOINT Neck
				{
					OFFSET 0.000000 0.000000 0.000000
					CHANNELS 3 Zrotation Yrotation Xrotation
					JOINT Neck1
					{
						OFFSET -0.054170 1.746240 0.172020
						CHANNELS 3 Zrotation Yrotation Xrotation
						JOINT Head
						{
							OFFSET 0.104070 1.761360 -0.123970
							CHANNELS 3 Zrotation Yrotation Xrotation
							End Site
							{
								OFFSET 0.000000 0.000000 0.000000
							}
						}
					}
				}
				JOINT LeftShoulder
				{
					OFFSET 0.000000 0.000000 0.000000
					CHANNELS 3 Zrotation Yrotation Xrotation
					JOINT LeftArm
					{
						OFFSET 3.362410 1.200890 -0.311210
						CHANNELS 3 Zrotation Yrotation Xrotation
						JOINT LeftForeArm
						{
							OFFSET 4.983000 -0.000000 -0.000000
							CHANNELS 3 Zrotation Yrotation Xrotation
							JOINT LeftHand
							{
								OFFSET 3.483560 -0.000000 -0.000000
								CHANNELS 3 Zrotation Yrotation Xrotation
								JOINT LeftFingerBase
								{
									OFFSET 0.000000 0.000000 0.000000
									CHANNELS 3 Zrotation Yrotation Xrotation
									JOINT LeftHandIndex1
									{
										OFFSET 0.715260 -0.000000 -0.000000
										CHANNELS 3 Zrotation Yrotation Xrotation
										End Site
										{
											OFFSET 0.000000 0.000000 0.000000
										}
									}
								}
								JOINT LThumb
								{
									OFFSET 0.000000 0.000000 0.000000
									CHANNELS 3 Zrotation Yrotation Xrotation
									End Site
									{
										OFFSET 0.000000 0.000000 0.000000
									}
								}
							}
						}
					}
				}
				JOINT RightShoulder
				{
					OFFSET 0.000000 0.000000 0.000000
					CHANNELS 3 Zrotation Yrotation Xrotation
					JOINT RightArm
					{
						OFFSET -3.136600 1.374050 -0.404650
						CHANNELS 3 Zrotation Yrotation Xrotation
						JOINT RightForeArm
						{
							OFFSET -5.241900 -0.000000 -0.000000
							CHANNELS 3 Zrotation Yrotation Xrotation
							JOINT RightHand
							{
								OFFSET -3.444170 -0.000000 -0.000000
								CHANNELS 3 Zrotation Yrotation Xrotation
								JOINT RightFingerBase
								{
									OFFSET 0.000000 0.000000 0.000000
									CHANNELS 3 Zrotation Yrotation Xrotation
									JOINT RightHandIndex1
									{
										OFFSET -0.622530 -0.000000 -0.000000
										CHANNELS 3 Zrotation Yrotation Xrotation
										End Site
										{
											OFFSET 0.000000 0.000000 0.000000
										}
									}
								}
								JOINT RThumb
								{
									OFFSET 0.000000 0.000000 0.000000
									CHANNELS 3 Zrotation Yrotation Xrotation
									End Site
									{
										OFFSET 0.000000 0.000000 0.000000
									}
								}
							}
						}
					}
				}
			}
		}
	}
}
MOTION
Frames: 4
Frame Time: 0.008333
0.008068 0.011975 0.133608 0.212391 0.134130 -0.145490 -0.001741 0.012136 0.110503 -0.402855 -0.006523 0.005625 0.063404 0.190155 0.687285 0.250606 -0.801229 -0.082140 -0.010297 0.070378 0.195958 -0.037273 0.070781 -0.161469 -0.103626 -0.174106 -0.542473 -0.460546 -0.524040 1.298178 0.109013 -1.028864 0.720928 0.140219 1.247557 -3.458025 -0.249610 -0.045561 0.134936 -0.017856 -0.045035 -0.015499 0.007927 -0.036356 -0.145216 -0.016594 -0.049026 0.132229 0.048191 -0.070338 -0.036828 0.030354 -0.034965 -0.032861 -0.013392 -0.026203 -0.002286 0.083657 -0.124290 0.053254 0.056234 -0.076858 -0.000636 0.026414 -0.011668 0.062468 -0.249994 -0.013307 0.059544 0.000000 0.000000 0.000000 -0.194928 0.013879 0.126967 -0.035133 0.003510 -0.000247 0.336113 -0.775285 -0.079675 -0.370648 0.259383 -0.346110 0.007080 0.036919 -0.266405 -0.740661 -0.702408 0.824974 -0.000000 0.000000 0.000000 -0.681308 -0.954941 0.352563
0.041879 0.154231 0.146767 0.297931 0.230590 -0.137325 0.081440 0.032055 0.155505 -0.456726 -0.043223 -0.288470 -0.049967 0.127597 0.525854 0.214326 -0.983334 -0.296441 -0.048519 -0.066656 -0.370666 -0.222100 -0.007351 -0.255070 -0.305270 -0.373083 -0.944330 -0.562715 -0.703040 1.276105 0.042613 -1.398557 0.324653 0.092527 1.129145 -3.640818 -0.270163 -0.094577 0.003488 -0.042424 -0.076595 -0.089675 -0.031805 -0.042663 -0.209934 -0.140781 -0.123373 -0.013980 0.018417 -0.160374 -0.084726 -0.018939 -0.064928 -0.070772 -0.098246 -0.090360 -0.021653 -0.697652 -0.213831 -0.290622 -0.003541 -0.293871 -0.044519 0.012801 -0.038667 -0.211737 -0.349993 -0.242367 -0.021244 -0.053264 0.000000 0.000000 -0.639216 -0.509242 -0.459436 -0.119839 -0.057305 -0.028093 0.278257 -0.878559 -0.096177 -0.716093 0.198795 -0.513028 -0.005859 0.020657 -0.439958 -1.583251 -0.743088 0.344328 0.018769 0.000000 0.000000 -1.295327 -1.471721 -0.019671
0.026294 0.168600 -0.305659 0.397522 0.262439 -0.284689 0.038275 -0.009282 0.172756 -0.639426 -0.151624 -0.697270 -0.190335 0.052956 0.340931 0.184347 -1.125964 -0.499562 -0.081957 -0.178976 -0.828699 -0.367021 -0.071774 -0.325048 -0.457005 -0.513108 -1.183479 -0.699883 -0.933052 1.302892 -0.024452 -1.827599 -0.086207 0.039926 0.971904 -3.729861 -0.267977 -0.159039 -0.162282 -0.079361 -0.130691 -0.208957 -0.103344 -0.052930 -0.283735 -0.301446 -0.220384 -0.180078 -0.024635 -0.274969 -0.168154 -0.083772 -0.103735 -0.129758 -0.204898 -0.170458 -0.044312 -1.542073 -0.327923 -0.686557 -0.078154 -0.533989 -0.094088 -0.001998 -0.070125 -0.535227 -0.479252 -0.500548 -0.116692 -0.109525 0.000000 0.000000 -1.062209 -1.054480 -1.062623 -0.199749 -0.113826 -0.051013 0.274502 -0.939437 -0.073714 -1.018683 0.184443 -0.641363 -0.016698 0.010427 -0.573757 -2.125439 -0.674524 -0.174836 0.036984 0.000000 0.000000 -1.802248 -1.971986 -0.230006
-0.020709 0.209482 -0.725808 0.505933 0.298829 -0.493586 -0.040776 -0.059657 0.184742 -0.806953 -0.242427 -1.023219 -0.316660 0.011859 0.234864 0.166974 -1.214517 -0.629231 -0.102742 -0.247000 -1.155712 -0.450517 -0.114119 -0.357675 -0.502067 -0.613601 -1.332079 -0.813175 -1.121489 1.525134 -0.055689 -2.136557 -0.311069 0.010694 0.869470 -3.690814 -0.230779 -0.211043 -0.277329 -0.096120 -0.158668 -0.281553 -0.147973 -0.051864 -0.311185 -0.432657 -0.293508 -0.295287 -0.047493 -0.357744 -0.206658 -0.124288 -0.127923 -0.161229 -0.280829 -0.224764 -0.060670 -2.236645 -0.388709 -0.942449 -0.115799 -0.723590 -0.131517 -0.012855 -0.093228 -0.765517 -0.557248 -0.691761 -0.181036 -0.160252 0.000000 0.000000 -1.373508 -1.505377 -1.561694 -0.263052 -0.160259 -0.070524 0.320277 -0.994060 -0.050699 -1.342882 0.159097 -0.777975 -0.029090 -0.001452 -0.714969 -2.819748 -0.653254 -0.829800 0.052184 0.000000 0.000000 -2.460347 -2.543712 -0.626208
